<svg width="255" height="83" viewBox="0 0 255 83" fill="none" xmlns="http://www.w3.org/2000/svg">
<g filter="url(#filter0_d_1_6)">
<path d="M39.373 17.9091C38.9894 14.6705 37.434 12.1562 34.7068 10.3665C31.9795 8.5767 28.6343 7.68182 24.6713 7.68182C21.7735 7.68182 19.238 8.15057 17.0647 9.08807C14.9127 10.0256 13.2295 11.3146 12.015 12.9553C10.8218 14.5959 10.2252 16.4602 10.2252 18.5483C10.2252 20.2955 10.6407 21.7976 11.4717 23.0547C12.324 24.2905 13.4106 25.3239 14.7316 26.1548C16.0526 26.9645 17.4376 27.6357 18.8865 28.1683C20.3353 28.6797 21.667 29.0952 22.8815 29.4148L29.5292 31.2045C31.2338 31.652 33.1301 32.2699 35.2181 33.0582C37.3275 33.8466 39.341 34.9226 41.2586 36.2862C43.1975 37.6285 44.7955 39.3544 46.0526 41.4638C47.3098 43.5732 47.9383 46.1619 47.9383 49.2301C47.9383 52.767 47.0115 55.9631 45.1578 58.8182C43.3254 61.6733 40.6407 63.9425 37.1038 65.6257C33.5882 67.3089 29.3161 68.1506 24.2877 68.1506C19.6002 68.1506 15.5413 67.3942 12.1109 65.8814C8.70179 64.3686 6.01713 62.2592 4.05691 59.5533C2.11799 56.8473 1.02069 53.7045 0.765004 50.125H8.94682C9.15989 52.5966 9.99086 54.642 11.4397 56.2614C12.9099 57.8594 14.7636 59.0526 17.0008 59.8409C19.2593 60.608 21.6883 60.9915 24.2877 60.9915C27.3133 60.9915 30.0299 60.5014 32.4376 59.5213C34.8453 58.5199 36.7522 57.1349 38.1585 55.3665C39.5647 53.5767 40.2678 51.4886 40.2678 49.1023C40.2678 46.929 39.6606 45.1605 38.4461 43.7969C37.2316 42.4332 35.6336 41.3253 33.6521 40.473C31.6705 39.6207 29.5292 38.875 27.2281 38.2358L19.1741 35.9347C14.0605 34.4645 10.0122 32.3658 7.02921 29.6385C4.04625 26.9112 2.55478 23.3423 2.55478 18.9318C2.55478 15.267 3.54554 12.071 5.52708 9.34375C7.52992 6.59517 10.2146 4.46449 13.5811 2.9517C16.9688 1.41761 20.7508 0.650566 24.9269 0.650566C29.1457 0.650566 32.8957 1.40696 36.1769 2.91974C39.4582 4.41122 42.0576 6.45667 43.9752 9.0561C45.9142 11.6555 46.9369 14.6065 47.0434 17.9091H39.373ZM60.9701 67V1.54545H68.8962V30.6932H103.797V1.54545H111.723V67H103.797V37.7244H68.8962V67H60.9701ZM182.818 34.2727C182.818 41.1761 181.572 47.142 179.079 52.1705C176.586 57.1989 173.166 61.0767 168.82 63.804C164.473 66.5312 159.509 67.8949 153.926 67.8949C148.344 67.8949 143.38 66.5312 139.033 63.804C134.686 61.0767 131.267 57.1989 128.774 52.1705C126.281 47.142 125.034 41.1761 125.034 34.2727C125.034 27.3693 126.281 21.4034 128.774 16.375C131.267 11.3466 134.686 7.46875 139.033 4.74148C143.38 2.0142 148.344 0.650566 153.926 0.650566C159.509 0.650566 164.473 2.0142 168.82 4.74148C173.166 7.46875 176.586 11.3466 179.079 16.375C181.572 21.4034 182.818 27.3693 182.818 34.2727ZM175.148 34.2727C175.148 28.6051 174.2 23.8217 172.304 19.9226C170.429 16.0234 167.882 13.0724 164.665 11.0696C161.469 9.06676 157.889 8.06534 153.926 8.06534C149.963 8.06534 146.373 9.06676 143.156 11.0696C139.96 13.0724 137.414 16.0234 135.517 19.9226C133.642 23.8217 132.705 28.6051 132.705 34.2727C132.705 39.9403 133.642 44.7237 135.517 48.6229C137.414 52.522 139.96 55.473 143.156 57.4759C146.373 59.4787 149.963 60.4801 153.926 60.4801C157.889 60.4801 161.469 59.4787 164.665 57.4759C167.882 55.473 170.429 52.522 172.304 48.6229C174.2 44.7237 175.148 39.9403 175.148 34.2727ZM196.146 67V1.54545H218.262C223.397 1.54545 227.595 2.4723 230.855 4.32599C234.136 6.15838 236.565 8.64062 238.142 11.7727C239.718 14.9048 240.507 18.3991 240.507 22.2557C240.507 26.1122 239.718 29.6172 238.142 32.7706C236.586 35.924 234.179 38.4382 230.919 40.3132C227.659 42.1669 223.483 43.0938 218.39 43.0938H202.538V36.0625H218.135C221.65 36.0625 224.473 35.4553 226.604 34.2408C228.735 33.0263 230.279 31.3857 231.238 29.3189C232.218 27.2308 232.708 24.8764 232.708 22.2557C232.708 19.6349 232.218 17.2912 231.238 15.2244C230.279 13.1577 228.724 11.5384 226.572 10.3665C224.42 9.17329 221.565 8.5767 218.007 8.5767H204.072V67H196.146Z" fill="black"/>
</g>
<defs>
<filter id="filter0_d_1_6" x="0.764999" y="0.650574" width="253.742" height="81.5" filterUnits="userSpaceOnUse" color-interpolation-filters="sRGB">
<feFlood flood-opacity="0" result="BackgroundImageFix"/>
<feColorMatrix in="SourceAlpha" type="matrix" values="0 0 0 0 0 0 0 0 0 0 0 0 0 0 0 0 0 0 127 0" result="hardAlpha"/>
<feOffset dx="10" dy="10"/>
<feGaussianBlur stdDeviation="2"/>
<feComposite in2="hardAlpha" operator="out"/>
<feColorMatrix type="matrix" values="0 0 0 0 0 0 0 0 0 0 0 0 0 0 0 0 0 0 0.25 0"/>
<feBlend mode="normal" in2="BackgroundImageFix" result="effect1_dropShadow_1_6"/>
<feBlend mode="normal" in="SourceGraphic" in2="effect1_dropShadow_1_6" result="shape"/>
</filter>
</defs>
</svg>
